STARTFONT 2.1
FONT HAN-GB2312
SIZE 14 72 72
FONTBOUNDINGBOX 9 14 0 0
STARTPROPERTIES 1
BITCOUNT 8
ENDPROPERTIES
CHARS 25
STARTCHAR  00A4
ENCODING  164
SWIDTH  1000 0
DWIDTH  9 0
BBX  9 9 0 0
BITMAP
006020408080206020
00E0F0FFFFFFF0FF80
0080FF801020C0FF30
00F0E000000020FF80
00FFC000000010FFA0
00C0F020000080FF60
00A0FFF0A0C0FFFF30
00E0A0C0F0F0A0E060
001000000000000000
ENDCHAR
STARTCHAR  00A7
ENCODING  167
SWIDTH  1000 0
DWIDTH  8 0
BBX  6 13 1 -3
BITMAP
0040F0F06000
00F0E0C0FF20
00F080004000
00A0FF600000
C0FFF0FF6000
F0E020E0FF60
80FF6030F0E0
00A0FF80E0F0
0000A0FFE040
000000C0C000
30C03060FF00
30F0FFFFC000
003080601000
ENDCHAR
STARTCHAR  00A8
ENCODING  168
SWIDTH  1000 0
DWIDTH  4 0
BBX  4 2 0 8
BITMAP
60404060
E08080E0
ENDCHAR
STARTCHAR  00B0
ENCODING  176
SWIDTH  1000 0
DWIDTH  6 0
BBX  4 5 1 5
BITMAP
40E0E040
E0A0C0E0
FF3030F0
A0FFFFA0
10806000
ENDCHAR
STARTCHAR  00B1
ENCODING  177
SWIDTH  1000 0
DWIDTH  9 0
BBX  7 7 1 0
BITMAP
000000FFA00000
000000FFA00000
FFFFFFFFFFFFFF
808080FFE08080
000000FFA00000
808080FFFF8080
FFFFFFFFFFFFFF
ENDCHAR
STARTCHAR  00E0
ENCODING  224
SWIDTH  1000 0
DWIDTH  9 0
BBX  7 10 1 0
BITMAP
0020F0E0000000
000040FF600000
00000060800000
0060E0FFE08000
60FFE0A0C0FF80
E0E010000080F0
FFA000000060FF
E0E010000080FF
60FFE0A0E0E0FF
0060E0FFE0A0FF
ENDCHAR
STARTCHAR  00E1
ENCODING  225
SWIDTH  1000 0
DWIDTH  9 0
BBX  7 10 1 0
BITMAP
00000060FF8000
000010E0C00000
000040A0100000
0060E0FFE08000
60FFE0A0C0FF80
E0E010000080F0
FFA000000060FF
E0E010000080FF
60FFE0A0E0E0FF
0060E0FFE0A0FF
ENDCHAR
STARTCHAR  00E8
ENCODING  232
SWIDTH  1000 0
DWIDTH  9 0
BBX  8 10 1 0
BITMAP
0030F0C000000000
000060FF60000000
0000006080000000
0060E0FFF0A01000
60FFE080A0FFC000
E0F01060E0FFC010
FFE0E0FFC0406030
E0E0A0300080FF60
60FFE0A0A0FFE000
0040E0FFF0A01000
ENDCHAR
STARTCHAR  00E9
ENCODING  233
SWIDTH  1000 0
DWIDTH  9 0
BBX  8 10 1 0
BITMAP
00000060FFA00000
000010E0C0000000
000040A010000000
0060E0FFF0A01000
60FFE080A0FFC000
E0F01060E0FFC010
FFE0E0FFC0406030
E0E0A0300080FF60
60FFE0A0A0FFE000
0040E0FFF0A01000
ENDCHAR
STARTCHAR  00EA
ENCODING  234
SWIDTH  1000 0
DWIDTH  9 0
BBX  8 10 1 0
BITMAP
000060FFC0000000
0010F0C0FF600000
0060A01060A00000
0060E0FFF0A01000
60FFE080A0FFC000
E0F01060E0FFC010
FFE0E0FFC0406030
E0E0A0300080FF60
60FFE0A0A0FFE000
0040E0FFF0A01000
ENDCHAR
STARTCHAR  00EC
ENCODING  236
SWIDTH  1000 0
DWIDTH  4 0
BBX  5 10 -1 0
BITMAP
20F0E00000
0040F08000
0000408000
0000FFA000
0000FFA000
0000FFA000
0000FFA000
0000FFA000
0000FFA000
0000FFA000
ENDCHAR
STARTCHAR  00ED
ENCODING  237
SWIDTH  1000 0
DWIDTH  4 0
BBX  5 10 0 0
BITMAP
0040FFA000
00E0C00000
3080100000
00FFA00000
00FFA00000
00FFA00000
00FFA00000
00FFA00000
00FFA00000
00FFA00000
ENDCHAR
STARTCHAR  00F2
ENCODING  242
SWIDTH  1000 0
DWIDTH  9 0
BBX  8 10 1 0
BITMAP
0020F0E010000000
000040FF80000000
00000060A0100000
0040C0FFF0A02000
40FFE0A0A0F0E020
E0E010000040FF80
FFC000000000FFA0
E0F010000040FF80
40FFE0A0A0F0E010
0040C0F0F0C02000
ENDCHAR
STARTCHAR  00F3
ENCODING  243
SWIDTH  1000 0
DWIDTH  9 0
BBX  8 10 1 0
BITMAP
00000030FFE01000
000000C0E0200000
000030C030000000
0040C0FFF0A02000
40FFE0A0A0F0E020
E0E010000040FF80
FFC000000000FFA0
E0F010000040FF80
40FFE0A0A0F0E010
0040C0F0F0C02000
ENDCHAR
STARTCHAR  00F7
ENCODING  247
SWIDTH  1000 0
DWIDTH  13 0
BBX  9 8 2 0
BITMAP
000000C0E010000000
000000E0F010000000
000000101000000000
808080808080808080
FFFFFFFFFFFFFFFFFF
000000101000000000
000000E0F010000000
000000C0E010000000
ENDCHAR
STARTCHAR  00F9
ENCODING  249
SWIDTH  1000 0
DWIDTH  8 0
BBX  6 10 1 0
BITMAP
00C0F0200000
0010E0A00000
000020800000
FFA00000A0FF
FFA00000A0FF
FFA00000A0FF
FFA00000A0FF
F0C00000E0F0
A0FFA0C0FFA0
10A0F0F0A010
ENDCHAR
STARTCHAR  00FA
ENCODING  250
SWIDTH  1000 0
DWIDTH  8 0
BBX  6 10 1 0
BITMAP
000020F0C000
0000A0E01000
000080300000
FFA00000A0FF
FFA00000A0FF
FFA00000A0FF
FFA00000A0FF
F0C00000E0F0
A0FFA0C0FFA0
10A0F0F0A010
ENDCHAR
STARTCHAR  00FC
ENCODING  252
SWIDTH  1000 0
DWIDTH  8 0
BBX  6 10 1 0
BITMAP
006040306000
00E08080E000
000000000000
FFA00000A0FF
FFA00000A0FF
FFA00000A0FF
FFA00000A0FF
F0C00000E0F0
A0FFA0C0FFA0
10A0F0F0A010
ENDCHAR
STARTCHAR  2014
ENCODING  8212
SWIDTH  1000 0
DWIDTH  14 0
BBX  14 2 0 3
BITMAP
8080808080808080808080808080
FFFFFFFFFFFFFFFFFFFFFFFFFFFF
ENDCHAR
STARTCHAR  2018
ENCODING  8216
SWIDTH  1000 0
DWIDTH  3 0
BBX  3 3 0 7
BITMAP
80FF10
30FF40
00F080
ENDCHAR
STARTCHAR  2019
ENCODING  8217
SWIDTH  1000 0
DWIDTH  3 0
BBX  3 3 0 7
BITMAP
00F0A0
20FF60
60FF10
ENDCHAR
STARTCHAR  201C
ENCODING  8220
SWIDTH  1000 0
DWIDTH  5 0
BBX  6 3 0 7
BITMAP
80FF00F0A000
40FF30A0E000
10FF6060FF00
ENDCHAR
STARTCHAR  201D
ENCODING  8221
SWIDTH  1000 0
DWIDTH  5 0
BBX  6 3 0 7
BITMAP
40FF40A0F000
60FF10C0C000
A0E000E08000
ENDCHAR
STARTCHAR  2026
ENCODING  8230
SWIDTH  1000 0
DWIDTH  13 0
BBX  11 2 1 0
BITMAP
6040000020802000004060
E080000060F060000080E0
ENDCHAR
STARTCHAR  2030
ENCODING  8240
SWIDTH  1000 0
DWIDTH  15 0
BBX  15 10 0 0
BITMAP
30E0FFE030000080C0000000000000
E0F0A0F0E00040F020000000000000
F0C010E0F010E06000000000000000
A0FFFFFFA080C00000000000000000
0060806040F0202000000000200000
00000010E0A0E0FFF04040E0FFE030
000000A0A0E0F060F0E0E0F060F0E0
000040F010FFC000C0FFFFC000C0FF
0010E06000C0FFA0FFC0C0FFA0F0C0
00A0A0000020C0FFC02020C0FFC020
ENDCHAR
ENDFONT
